PathFileType	3	(X/Y/Z)	random_1__view1_aligned.trc
DataRate	CameraRate	NumFrames	NumMarkers	Units	OrigDataRate	OrigDataStartFrame	OrigNumFrames
100.0	100.0	6	19	mm	100.0	407	1930
Frame#	Time	pelvis			neck			head			hip_left			hip_right			knee_left			knee_right			ankle_left			ankle_right			heel_left			heel_right			toe_left			toe_right			shoulder_left			shoulder_right			elbow_left			elbow_right			wrist_left			wrist_right			
		X1	Y1	Z1	X2	Y2	Z2	X3	Y3	Z3	X4	Y4	Z4	X5	Y5	Z5	X6	Y6	Z6	X7	Y7	Z7	X8	Y8	Z8	X9	Y9	Z9	X10	Y10	Z10	X11	Y11	Z11	X12	Y12	Z12	X13	Y13	Z13	X14	Y14	Z14	X15	Y15	Z15	X16	Y16	Z16	X17	Y17	Z17	X18	Y18	Z18	X19	Y19	Z19	
407	4.06000	-48.454355	945.098239	193.110417	-63.709152	1552.098232	168.251160	2.911586	1695.685019	118.497630	-88.291648	942.273840	124.859174	-8.617063	947.922638	261.361659	-7.602054	519.356441	42.144721	98.880474	518.701818	210.479363	-95.120240	130.567403	117.002225	-30.706233	126.646842	248.120028	-118.557639	87.986199	143.895031	-73.887083	83.886017	257.972445	6.910162	53.908612	0.632129	142.346732	43.121225	191.657277	-133.336780	1521.827631	27.117330	2.409122	1529.009024	302.910343	146.875305	1513.763899	-10.455293	162.900584	1596.618767	117.496779	148.533719	1730.461093	30.419746	64.170869	1780.759577	-6.817924
408	4.07000	-46.704923	945.617988	191.361553	-63.657230	1552.199211	166.813851	3.327312	1695.902973	119.729438	-83.869525	942.520976	122.429490	-9.540320	948.714999	260.293616	-0.452961	519.305925	43.363409	96.121149	518.717193	214.768705	-90.204122	130.240757	113.490600	-33.839933	126.105966	250.202399	-114.391443	87.728394	138.889071	-76.936097	83.290202	259.108314	13.678034	52.963344	4.355935	138.839117	42.553708	197.864086	-127.310794	1522.217446	24.186504	-3.572097	1529.231282	302.785794	152.854348	1515.728153	-5.304216	161.367562	1596.961463	128.220312	149.127028	1733.999728	34.471048	62.914253	1781.203546	3.659041
409	4.08000	-44.955490	946.137736	189.612689	-63.605308	1552.300190	165.376541	3.743038	1696.120927	120.961246	-79.447403	942.768112	119.999806	-10.463577	949.507360	259.225572	6.696132	519.255408	44.582097	93.361825	518.732569	219.058046	-85.288004	129.914112	109.978976	-36.973634	125.565089	252.284770	-110.225248	87.470589	133.883112	-79.985110	82.694387	260.244183	20.445907	52.018076	8.079740	135.331503	41.986191	204.070895	-121.284808	1522.607261	21.255678	-9.553315	1529.453540	302.661246	158.833390	1517.692407	-0.153139	159.834540	1597.304158	138.943846	149.720337	1737.538363	38.522350	61.657636	1781.647514	14.136006
410	4.09000	-43.206057	946.657485	187.863825	-63.553386	1552.401169	163.939231	4.158764	1696.338881	122.193054	-75.025280	943.015248	117.570123	-11.386834	950.299721	258.157528	13.845226	519.204891	45.800785	90.602500	518.747944	223.347387	-80.371887	129.587466	106.467351	-40.107334	125.024213	254.367141	-106.059053	87.212784	128.877152	-83.034124	82.098573	261.380052	27.213779	51.072808	11.803545	131.823888	41.418674	210.277704	-115.258822	1522.997076	18.324852	-15.534534	1529.675798	302.536698	164.812433	1519.656661	4.997939	158.301518	1597.646853	149.667379	150.313646	1741.076998	42.573651	60.401020	1782.091483	24.612971
411	4.10000	-41.456624	947.177233	186.114962	-63.501464	1552.502148	162.501922	4.574490	1696.556835	123.424862	-70.603157	943.262384	115.140439	-12.310091	951.092082	257.089484	20.994319	519.154375	47.019473	87.843175	518.763319	227.636729	-75.455769	129.260820	102.955727	-43.241034	124.483337	256.449512	-101.892857	86.954979	123.871192	-86.083138	81.502758	262.515922	33.981652	50.127540	15.527351	128.316273	40.851157	216.484514	-109.232835	1523.386892	15.394026	-21.515753	1529.898056	302.412150	170.791475	1521.620915	10.149016	156.768497	1597.989548	160.390913	150.906955	1744.615633	46.624953	59.144403	1782.535452	35.089936
412	4.11000	-39.707192	947.696981	184.366098	-63.449541	1552.603128	161.064612	4.990216	1696.774789	124.656671	-66.181035	943.509520	112.710755	-13.233348	951.884443	256.021440	28.143412	519.103858	48.238161	85.083850	518.778694	231.926070	-70.539651	128.934175	99.444102	-46.374735	123.942460	258.531883	-97.726662	86.697174	118.865233	-89.132151	80.906943	263.651791	40.749524	49.182272	19.251156	124.808659	40.283640	222.691323	-103.206849	1523.776707	12.463200	-27.496971	1530.120314	302.287602	176.770518	1523.585169	15.300093	155.235475	1598.332244	171.114446	151.500264	1748.154268	50.676255	57.887786	1782.979421	45.566901
